<svg version="1.1" xmlns="http://www.w3.org/2000/svg" xmlns:xlink="http://www.w3.org/1999/xlink" x="0px" y="0px"
	 width="274.45px" height="92.21px" viewBox="0 0 274.45 92.21" style="enable-background:new 0 0 274.45 92.21;"
	 xml:space="preserve">
<style type="text/css">
	.st0{fill:#B2B2B2;}
	.st1{fill:#AE1F2B;}
	.st2{fill:#141E2F;}
	.st3{fill:#FFFFFF;}
	.st4{fill:none;stroke:#141E2F;stroke-width:0.1706;stroke-linecap:round;stroke-linejoin:round;stroke-miterlimit:10;}
	.st5{fill:#AE212C;}
</style>
<defs>
</defs>
<path class="st0" d="M126.31,2.36v25.94c0,10.96,5.1,15.17,11.41,15.17c7.14,0,12.04-4.59,12.04-15.17V2.36h3.06v25.68
	c0,13.19-7.14,17.97-15.23,17.97c-7.52,0-14.34-4.33-14.34-17.52V2.36H126.31z"/>
<path class="st0" d="M159.56,22.05c0-2.8-0.06-4.91-0.25-7.33h2.87l0.19,5.48h0.13c1.66-3.44,5.54-6.18,10.52-6.18
	c2.93,0,10.7,1.46,10.7,12.94v18.35h-3.06v-18.1c0-5.61-2.17-10.64-8.47-10.64c-4.27,0-7.97,3.06-9.18,7.07
	c-0.19,0.7-0.38,1.72-0.38,2.68v18.99h-3.06V22.05z"/>
<path class="st0" d="M209.2,38.04c0,2.42,0.06,4.91,0.44,7.27h-2.8l-0.45-4.4h-0.13c-1.53,2.36-4.91,5.1-9.81,5.1
	c-6.18,0-8.98-4.33-8.98-8.41c0-7.07,6.18-11.34,18.67-11.22v-0.83c0-3-0.57-9.05-7.84-8.98c-2.68,0-5.48,0.7-7.71,2.29l-0.96-2.23
	c2.8-1.85,6.25-2.61,8.98-2.61c8.86,0,10.58,6.63,10.58,12.04V38.04z M206.14,28.93c-6.69-0.19-15.49,0.83-15.49,8.16
	c0,4.4,2.93,6.37,6.12,6.37c5.1,0,8.03-3.12,9.05-6.12c0.26-0.64,0.32-1.34,0.32-1.85V28.93z"/>
<path class="st0" d="M215.44,0h3.06v20.45h0.13c2.04-3.95,5.8-6.44,11.22-6.44c7.71,0,13.06,6.5,13.06,15.68
	c0,10.9-6.95,16.31-13.64,16.31c-4.97,0-8.54-2.04-10.96-6.18h-0.13l-0.26,5.48h-2.74c0.19-2.17,0.25-4.84,0.25-7.14V0z
	 M218.5,33.52c0,0.7,0.06,1.47,0.25,2.23c1.34,4.65,5.29,7.71,10.07,7.71c7.01,0,11.02-5.74,11.02-13.7
	c0-7.01-3.82-13.19-10.77-13.19c-4.46,0-8.73,3.06-10.2,8.16c-0.19,0.76-0.38,1.59-0.38,2.68V33.52z"/>
<path class="st1" d="M139.69,92.21c-2.68,0-5.13-0.5-7.36-1.5c-2.23-1-4.14-2.4-5.74-4.21c-1.59-1.81-2.83-3.96-3.73-6.47
	c-0.89-2.51-1.34-5.27-1.34-8.28c0-3.1,0.46-5.95,1.37-8.54c0.91-2.59,2.2-4.82,3.86-6.69c1.66-1.87,3.63-3.32,5.92-4.36
	c2.29-1.04,4.82-1.56,7.58-1.56c2.72,0,5.19,0.49,7.42,1.46c2.23,0.98,4.14,2.36,5.73,4.14c1.59,1.78,2.83,3.93,3.7,6.43
	c0.87,2.51,1.31,5.29,1.31,8.35c0,3.31-0.47,6.3-1.4,8.95c-0.93,2.65-2.29,4.94-4.08,6.85c-1.66,1.78-3.62,3.13-5.89,4.05
	C144.77,91.75,142.32,92.21,139.69,92.21 M140.07,55.25c-2.17,0-4.04,0.47-5.64,1.4c-1.59,0.93-2.91,2.18-3.95,3.73
	c-1.04,1.55-1.81,3.3-2.29,5.26c-0.49,1.95-0.73,3.95-0.73,5.99c0,2,0.26,3.95,0.8,5.86c0.53,1.91,1.33,3.62,2.39,5.13
	c1.06,1.51,2.38,2.72,3.95,3.63c1.57,0.91,3.38,1.37,5.42,1.37c2.17,0,4.03-0.47,5.61-1.4c1.57-0.93,2.88-2.18,3.92-3.73
	c1.04-1.55,1.8-3.3,2.29-5.26c0.49-1.95,0.73-3.95,0.73-5.99c0-1.91-0.25-3.82-0.76-5.73c-0.51-1.91-1.27-3.63-2.29-5.16
	c-1.02-1.53-2.32-2.76-3.89-3.69C144.04,55.72,142.19,55.25,140.07,55.25"/>
<path class="st1" d="M163.07,69.01c0-1.61-0.02-3.09-0.06-4.43c-0.04-1.34-0.11-2.64-0.19-3.92h4.97l0.32,5.1h0.13
	c0.38-0.72,0.89-1.42,1.53-2.1c0.64-0.68,1.38-1.29,2.23-1.85c0.85-0.55,1.82-0.99,2.9-1.31c1.08-0.32,2.26-0.48,3.54-0.48
	c1.06,0,2.23,0.19,3.5,0.57c1.27,0.38,2.45,1.06,3.54,2.04c1.08,0.98,2,2.32,2.74,4.01c0.74,1.7,1.11,3.87,1.11,6.5v18.35h-5.61
	V73.73c0-1.23-0.13-2.4-0.38-3.5c-0.25-1.1-0.66-2.07-1.21-2.9c-0.55-0.83-1.28-1.49-2.2-1.98c-0.91-0.49-2.03-0.73-3.35-0.73
	c-1.83,0-3.41,0.56-4.75,1.69c-1.34,1.13-2.26,2.47-2.77,4.05c-0.26,0.72-0.38,1.59-0.38,2.61v18.54h-5.61V69.01z"/>
<rect x="194.86" y="49.96" class="st1" width="5.61" height="41.54"/>
<path class="st1" d="M211.94,57.42h-5.61v-4.4h5.61V57.42z M206.33,60.09h5.61v31.41h-5.61V60.09z"/>
<path class="st1" d="M217.67,69.01c0-1.61-0.02-3.09-0.06-4.43c-0.04-1.34-0.11-2.64-0.19-3.92h4.97l0.32,5.1h0.13
	c0.38-0.72,0.89-1.42,1.53-2.1c0.64-0.68,1.38-1.29,2.23-1.85c0.85-0.55,1.82-0.99,2.9-1.31c1.08-0.32,2.26-0.48,3.54-0.48
	c1.06,0,2.23,0.19,3.5,0.57c1.28,0.38,2.45,1.06,3.54,2.04c1.08,0.98,2,2.32,2.74,4.01c0.74,1.7,1.12,3.87,1.12,6.5v18.35h-5.61
	V73.73c0-1.23-0.13-2.4-0.38-3.5c-0.25-1.1-0.66-2.07-1.21-2.9c-0.55-0.83-1.28-1.49-2.2-1.98c-0.91-0.49-2.03-0.73-3.34-0.73
	c-1.83,0-3.41,0.56-4.75,1.69c-1.34,1.13-2.26,2.47-2.77,4.05c-0.25,0.72-0.38,1.59-0.38,2.61v18.54h-5.61V69.01z"/>
<path class="st1" d="M252.59,77.17c0.04,1.91,0.35,3.54,0.93,4.87c0.57,1.34,1.34,2.44,2.29,3.31c0.96,0.87,2.07,1.51,3.35,1.91
	c1.27,0.4,2.61,0.61,4.01,0.61c2.04,0,3.71-0.15,5-0.45c1.29-0.3,2.47-0.68,3.54-1.15l0.96,3.95c-0.98,0.47-2.32,0.9-4.01,1.31
	c-1.7,0.4-3.78,0.61-6.25,0.61c-2.38,0-4.5-0.37-6.37-1.12c-1.87-0.74-3.46-1.79-4.78-3.15c-1.32-1.36-2.32-2.98-2.99-4.87
	c-0.68-1.89-1.02-4-1.02-6.34c0-2.33,0.33-4.51,0.99-6.53c0.66-2.02,1.61-3.77,2.87-5.26c1.25-1.49,2.77-2.67,4.56-3.54
	c1.78-0.87,3.8-1.31,6.05-1.31c2.5,0,4.59,0.49,6.24,1.47c1.66,0.98,2.96,2.2,3.92,3.66c0.96,1.47,1.62,3.05,2.01,4.75
	c0.38,1.7,0.57,3.25,0.57,4.65c0,0.6-0.02,1.1-0.06,1.53c-0.04,0.43-0.08,0.79-0.13,1.08H252.59z M269.03,73.16
	c0-0.89-0.11-1.87-0.32-2.93c-0.21-1.06-0.61-2.05-1.18-2.96c-0.57-0.91-1.37-1.68-2.39-2.29c-1.02-0.62-2.31-0.92-3.88-0.92
	c-1.4,0-2.62,0.3-3.67,0.89c-1.04,0.6-1.91,1.34-2.61,2.23c-0.7,0.89-1.23,1.87-1.59,2.93c-0.36,1.06-0.61,2.08-0.73,3.06H269.03z"
	/>
<rect x="110.35" y="1.81" class="st0" width="1.11" height="89.94"/>
<polygon class="st2" points="67.82,65.12 67.83,65.13 67.83,65.12 "/>
<polygon class="st2" points="28.76,65.12 28.77,65.13 28.77,65.12 "/>
<path class="st2" d="M25.72,65.24v1.32h2v-1.63C27,64.99,26.3,65.11,25.72,65.24"/>
<path class="st2" d="M64.52,65.24v1.32h2v-1.63C65.8,64.99,65.1,65.11,64.52,65.24"/>
<path class="st2" d="M8.33,77.03c-3.64,0-4.79-1.85-4.79-4.72v-7.08h2v6.84c0,2.2,0.76,3.4,2.79,3.4c1.98,0,2.74-1.24,2.74-3.4
	v-6.84h2.02v7.06C13.09,75.2,11.57,77.03,8.33,77.03"/>
<path class="st2" d="M21.5,76.81v-5.77c0-1.74-0.63-2.52-2.27-2.52c-1.05,0-2.03,0.3-2.37,0.43v7.86h-1.92v-8.91
	c0.48-0.17,2.4-0.78,4.35-0.78c2.64,0,4.14,1,4.14,3.11v6.58H21.5z"/>
<polygon class="st2" points="34.87,76.81 32.34,76.81 28.99,67.34 31.03,67.34 33.65,75.46 36.26,67.34 38.2,67.34 "/>
<path class="st2" d="M43.21,68.41c-1.54,0-2.35,1-2.39,2.85h4.79C45.58,69.61,44.79,68.41,43.21,68.41 M40.83,72.44
	c0.04,2.15,0.91,3.26,3.09,3.26c1.29,0,2.85-0.57,3.11-0.83v1.44c-0.22,0.17-1.63,0.72-3.7,0.72c-3.38,0-4.42-1.76-4.42-5.2
	c0-3.07,1.61-4.72,4.31-4.72c2.64,0,4.27,1.7,4.27,4.72v0.61H40.83z"/>
<path class="st2" d="M53.65,68.48c-1,0-2.07,0.33-2.37,0.41v7.92h-1.92v-8.93c0.33-0.17,2.33-0.76,4.05-0.76
	c0.13,0,1.05,0.02,1.2,0.09v1.37C54.42,68.54,53.87,68.48,53.65,68.48"/>
<path class="st2" d="M58.86,77.03c-2,0-3.27-0.5-3.62-0.72v-1.44c0.63,0.43,2.07,0.83,3.16,0.83c1.7,0,2.37-0.61,2.37-1.37
	c0-0.63-0.63-1.02-1.42-1.33c-1.94-0.76-4.12-1.22-4.12-3.16c0-1.76,1.65-2.72,3.75-2.72c1.89,0,3.24,0.57,3.42,0.7v1.4
	c-0.5-0.28-1.7-0.76-3-0.76c-1.66,0-2.24,0.57-2.24,1.22c0,0.59,0.65,0.94,1.44,1.26c1.57,0.63,4.16,1.22,4.16,3.09
	C62.76,75.86,61.49,77.03,58.86,77.03"/>
<path class="st2" d="M85.84,72.09h-1.55c-2.11,0-3.35,0.46-3.35,1.89c0,1.13,0.92,1.77,2.33,1.77c1.26,0,2.33-0.22,2.57-0.33V72.09z
	 M83.13,77.03c-2.66,0-4.11-1.05-4.11-3c0-2.27,2.27-3.11,4.62-3.11h2.2v-0.65c0-1.18-0.76-1.85-2.76-1.85
	c-1.39,0-3.03,0.65-3.31,0.78v-1.39c0.31-0.11,2.02-0.7,3.77-0.7c2.89,0,4.18,0.94,4.18,3.25v6.03
	C87.31,76.58,85.73,77.03,83.13,77.03"/>
<rect x="25.75" y="67.34" class="st2" width="1.92" height="9.47"/>
<path class="st2" d="M75.4,75.22c-0.26,0.11-1.18,0.44-2.39,0.44c-1.79,0-2.61-1.11-2.61-3.83c0-2.22,0.87-3.33,2.63-3.33
	c0.94,0,1.98,0.31,2.37,0.5V75.22z M75.4,67.71c-0.26-0.13-1.5-0.59-2.88-0.59c-2.44,0-4.09,1.61-4.09,4.72c0,3.5,1.18,5.2,4.57,5.2
	c1.96,0,3.61-0.48,4.33-0.8V64.49c-0.67,0.04-1.34,0.15-1.92,0.26V67.71z"/>
<rect x="64.56" y="67.34" class="st2" width="1.92" height="9.47"/>
<path class="st2" d="M96.57,75.22c-0.26,0.11-1.18,0.44-2.39,0.44c-1.79,0-2.61-1.11-2.61-3.83c0-2.22,0.87-3.33,2.63-3.33
	c0.94,0,1.98,0.31,2.37,0.5V75.22z M96.57,67.71c-0.26-0.13-1.5-0.59-2.88-0.59c-2.44,0-4.09,1.61-4.09,4.72
	c0,3.5,1.18,5.2,4.57,5.2c1.96,0,3.61-0.48,4.33-0.8V64.49c-0.67,0.04-1.34,0.15-1.92,0.26V67.71z"/>
<path class="st2" d="M68.19,85.99h-2.13v4.14h2.16c1.66,0,2.6-0.54,2.6-2.04C70.82,86.68,69.94,85.99,68.19,85.99 M68.17,81.05
	h-2.11v3.62h2.16c1.3,0,2.35-0.57,2.35-1.83C70.58,81.52,69.7,81.05,68.17,81.05 M68.54,91.47h-4.33V79.7h4.1
	c2.58,0,4.14,0.99,4.14,2.94c0,1.42-0.97,2.41-2.37,2.65c1.68,0.24,2.67,1.25,2.67,2.98C72.74,90.47,71.27,91.47,68.54,91.47"/>
<path class="st2" d="M78.53,83.08c-1.53,0-2.35,1-2.39,2.85h4.79C80.9,84.28,80.1,83.08,78.53,83.08 M76.14,87.11
	c0.04,2.15,0.91,3.26,3.09,3.26c1.29,0,2.85-0.57,3.11-0.83v1.44c-0.22,0.17-1.63,0.72-3.7,0.72c-3.38,0-4.42-1.76-4.42-5.2
	c0-3.07,1.61-4.72,4.31-4.72c2.65,0,4.27,1.7,4.27,4.72v0.61H76.14z"/>
<path class="st2" d="M97.41,83.17c-1.9,0-2.64,1-2.64,3.33c0,2.81,0.74,3.83,2.64,3.83c1.83,0,2.66-1.09,2.66-3.83
	C100.07,84.19,99.3,83.17,97.41,83.17 M97.41,91.69c-3.61,0-4.62-1.66-4.62-5.2c0-3.35,1.65-4.72,4.62-4.72
	c3.03,0,4.66,1.31,4.66,4.72C102.07,90.46,100.44,91.69,97.41,91.69"/>
<path class="st2" d="M104.64,85.29h0.23c0.24,0,0.47-0.08,0.47-0.29c0-0.17-0.12-0.31-0.44-0.31c-0.13,0-0.21,0.01-0.26,0.02V85.29z
	 M104.64,86.32h-0.34V84.5c0.19-0.03,0.38-0.05,0.64-0.05c0.31,0,0.46,0.05,0.57,0.14c0.11,0.08,0.19,0.22,0.19,0.39
	c0,0.22-0.16,0.36-0.35,0.43v0.02c0.15,0.07,0.24,0.21,0.29,0.45c0.05,0.27,0.1,0.38,0.14,0.45h-0.35c-0.05-0.07-0.1-0.23-0.15-0.47
	c-0.04-0.21-0.16-0.3-0.42-0.3h-0.22V86.32z M104.94,83.93c-0.79,0-1.39,0.65-1.39,1.43c0,0.81,0.6,1.44,1.41,1.44
	c0.78,0.01,1.37-0.64,1.37-1.43c0-0.8-0.59-1.44-1.38-1.44H104.94z M104.97,83.62c0.98,0,1.75,0.77,1.75,1.74
	c0,1-0.77,1.76-1.76,1.76s-1.78-0.77-1.78-1.76c0-0.97,0.79-1.74,1.78-1.74H104.97z"/>
<path class="st2" d="M88.92,91.47h1.92V79.43c-0.67,0.04-1.34,0.15-1.92,0.26V91.47z"/>
<path class="st2" d="M84.67,91.47h1.92V79.43c-0.67,0.04-1.34,0.15-1.92,0.26V91.47z"/>
<path class="st2" d="M18.85,91.47V85.7c0-1.74-0.63-2.51-2.28-2.51c-1.05,0-2.03,0.3-2.37,0.43v7.86h-1.92v-8.91
	c0.48-0.17,2.4-0.78,4.35-0.78c2.64,0,4.14,1,4.14,3.11v6.58H18.85z"/>
<path class="st2" d="M38.23,83.15c-1,0-2.07,0.33-2.37,0.41v7.92h-1.92v-8.93c0.33-0.17,2.33-0.76,4.05-0.76
	c0.13,0,1.05,0.02,1.2,0.09v1.37C39.01,83.21,38.45,83.15,38.23,83.15"/>
<path class="st2" d="M44.31,83.08c-1.53,0-2.35,1-2.39,2.85h4.79C46.68,84.28,45.89,83.08,44.31,83.08 M41.93,87.11
	c0.04,2.15,0.91,3.26,3.09,3.26c1.3,0,2.85-0.57,3.11-0.83v1.44c-0.22,0.17-1.63,0.72-3.7,0.72c-3.38,0-4.42-1.76-4.42-5.2
	c0-3.07,1.61-4.72,4.31-4.72c2.65,0,4.27,1.7,4.27,4.72v0.61H41.93z"/>
<path class="st2" d="M53.51,91.69c-2,0-3.27-0.5-3.62-0.72v-1.44c0.63,0.43,2.07,0.83,3.16,0.83c1.7,0,2.37-0.61,2.37-1.37
	c0-0.63-0.63-1.02-1.42-1.33c-1.94-0.76-4.12-1.22-4.12-3.16c0-1.76,1.65-2.72,3.75-2.72c1.89,0,3.24,0.57,3.42,0.7v1.41
	c-0.5-0.28-1.7-0.76-3-0.76c-1.66,0-2.24,0.57-2.24,1.22c0,0.59,0.65,0.94,1.44,1.26c1.57,0.63,4.16,1.22,4.16,3.09
	C57.41,90.53,56.13,91.69,53.51,91.69"/>
<path class="st2" d="M44.68,79.11l-1.01,1.64h1.42l1.53-1.95C45.93,78.87,45.25,78.99,44.68,79.11"/>
<path class="st2" d="M3.57,86.52l1.9-6.21l1.88,6.21H3.57z M8.86,91.47H11L6.81,78.9H4.27L0,91.47h2.05l1-3.26h4.82L8.86,91.47z"/>
<path class="st2" d="M29.71,90.01c-0.26,0.11-1.18,0.44-2.39,0.44c-1.79,0-2.61-1.11-2.61-3.83c0-2.22,0.87-3.33,2.63-3.33
	c0.94,0,1.98,0.32,2.37,0.5V90.01z M29.71,82.5c-0.26-0.13-1.5-0.59-2.88-0.59c-2.44,0-4.09,1.61-4.09,4.72
	c0,3.49,1.18,5.2,4.57,5.2c1.96,0,3.61-0.48,4.33-0.79V79.28c-0.67,0.04-1.34,0.15-1.92,0.26V82.5z"/>
<path class="st3" d="M51.04,60.26c-5.18,0-10.19-1.57-14.53-4.56l-0.63,0.4v2.06c0,1.09-0.87,1.97-1.95,1.97h-5.24
	c-1.52-0.01-2.75-1.27-2.75-2.82v-3.97c0-0.93,0.48-1.82,1.26-2.31l2.72-1.71C26.09,44.17,24,37.77,24,31.13
	C24,15.07,36.13,2,51.04,2c14.91,0,27.04,13.07,27.04,29.13c0,6.66-2.1,13.06-5.94,18.22l2.67,1.68c0.78,0.49,1.26,1.37,1.26,2.31
	v3.97c0,1.55-1.23,2.81-2.74,2.82h-5.25c-1.07,0-1.95-0.89-1.95-1.97V56.1l-0.6-0.38C61.2,58.69,56.21,60.26,51.04,60.26"/>
<path class="st4" d="M51.04,60.26c-5.18,0-10.19-1.57-14.53-4.56l-0.63,0.4v2.06c0,1.09-0.87,1.97-1.95,1.97h-5.24
	c-1.52-0.01-2.75-1.27-2.75-2.82v-3.97c0-0.93,0.48-1.82,1.26-2.31l2.72-1.71C26.09,44.17,24,37.77,24,31.13
	C24,15.07,36.13,2,51.04,2c14.91,0,27.04,13.07,27.04,29.13c0,6.66-2.1,13.06-5.94,18.22l2.67,1.68c0.78,0.49,1.26,1.37,1.26,2.31
	v3.97c0,1.55-1.23,2.81-2.74,2.82h-5.25c-1.07,0-1.95-0.89-1.95-1.97V56.1l-0.6-0.38C61.2,58.69,56.21,60.26,51.04,60.26z"/>
<rect x="37.42" y="24.16" class="st5" width="7.43" height="15.03"/>
<rect x="57.22" y="24.16" class="st5" width="7.43" height="15.03"/>
<polygon class="st5" points="51.09,19.65 46.99,24.16 46.99,39.19 55.08,39.19 55.08,24.16 "/>
<path class="st2" d="M51.04,51.96c-10.64,0-19.26-9.33-19.26-20.83c0-11.5,8.62-20.83,19.26-20.83c10.64,0,19.26,9.33,19.26,20.83
	C70.29,42.64,61.67,51.96,51.04,51.96 M74.05,52.23l-4-2.52l0,0c4.11-4.92,6.61-11.43,6.61-18.58c0-15.31-11.47-27.72-25.63-27.72
	c-14.15,0-25.63,12.41-25.63,27.72c0,7.14,2.5,13.64,6.59,18.55v0l-4.04,2.55c-0.37,0.23-0.6,0.66-0.6,1.11v3.97
	c0,0.82,0.64,1.41,1.33,1.41h5.24c0.3,0,0.53-0.25,0.53-0.56v-2.84L36.56,54c4.12,3.06,9.1,4.85,14.48,4.85
	c5.36,0,10.33-1.78,14.45-4.83c0,0,0,0,0,0l2.06,1.3v2.84c0,0.31,0.24,0.56,0.53,0.56h5.24h0c0.7,0,1.33-0.59,1.33-1.41v-3.97
	C74.65,52.89,74.42,52.47,74.05,52.23"/>
</svg>
